<svg xmlns="http://www.w3.org/2000/svg" width="79" height="106"><g fill="none" fill-rule="evenodd"><g fill="#1F9FFE"><path fill-rule="nonzero" d="M71.866 35.026H68.64v-5.508c0-.64-.512-1.158-1.144-1.158h-4.012V15.158A1.15 1.15 0 0 0 62.341 14h-8.943a1.15 1.15 0 0 0-1.144 1.158c0 .64.512 1.158 1.144 1.158h7.8v18.71H19.801v-18.71h29.02a1.15 1.15 0 0 0 1.144-1.158A1.15 1.15 0 0 0 48.823 14H18.658a1.15 1.15 0 0 0-1.143 1.158V28.36h-4.01c-.632 0-1.144.519-1.144 1.158v5.508H9.133C5.2 35.026 2 38.266 2 42.249v26.548c0 3.982 3.2 7.223 7.133 7.223h.094v1.259c0 1.97 1.584 3.574 3.531 3.574 1.946 0 3.53-1.603 3.53-3.574V76.02h1.227v14.822c0 .64.512 1.158 1.143 1.158H62.34a1.15 1.15 0 0 0 1.144-1.158V76.02h1.228v1.259c0 1.97 1.584 3.574 3.53 3.574 1.947 0 3.53-1.603 3.53-3.574V76.02h.093C75.8 76.02 79 72.78 79 68.797V42.249c0-3.983-3.2-7.223-7.134-7.223zm-8.382-4.35h2.868v4.35h-2.868v-4.35zm-48.836 0h2.867v4.35h-2.867v-4.35zM14 77.28c0 .693-.558 1.258-1.243 1.258a1.252 1.252 0 0 1-1.243-1.258V76.02h2.486v1.259zm47.196 12.405H19.802V70.202h41.395v19.482zm8.288-12.405c0 .693-.557 1.258-1.242 1.258A1.252 1.252 0 0 1 67 77.28V76.02h2.485v1.259zm7.228-8.482c0 2.705-2.174 4.907-4.847 4.907H67.83V67.62c0-2.748-2.207-4.982-4.92-4.982H24.124a1.15 1.15 0 0 0-1.144 1.158c0 .639.512 1.158 1.144 1.158H62.91c1.452 0 2.633 1.196 2.633 2.666v6.083h-2.059v-4.66a1.15 1.15 0 0 0-1.143-1.158H18.658a1.15 1.15 0 0 0-1.143 1.158v4.66h-2.057V67.62c0-1.47 1.18-2.666 2.632-2.666h1.459c.631 0 1.144-.52 1.144-1.158 0-.64-.513-1.158-1.144-1.158H18.09c-2.712 0-4.92 2.234-4.92 4.982v6.083H9.134c-2.672 0-4.846-2.201-4.846-4.907V42.249c0-2.706 2.174-4.907 4.846-4.907h62.733c2.673 0 4.847 2.201 4.847 4.907v26.548z"/><path fill-rule="nonzero" d="M24 40c-2.206 0-4 1.795-4 4 0 2.206 1.794 4 4 4 2.205 0 4-1.794 4-4 0-2.205-1.795-4-4-4zm0 5.618a1.62 1.62 0 0 1-1.618-1.617A1.62 1.62 0 0 1 24 42.382a1.62 1.62 0 0 1 1.618 1.619A1.62 1.62 0 0 1 24 45.618zM14 40c-2.206 0-4 1.795-4 4 0 2.206 1.794 4 4 4s4-1.794 4-4c0-2.205-1.794-4-4-4zm0 5.618a1.62 1.62 0 0 1-1.618-1.617A1.62 1.62 0 0 1 14 42.382a1.62 1.62 0 0 1 1.618 1.619A1.62 1.62 0 0 1 14 45.618z"/><path d="M26.119 24H55.88C56.5 24 57 23.329 57 22.5c0-.828-.5-1.5-1.119-1.5H26.12C25.5 21 25 21.672 25 22.5c0 .829.5 1.5 1.119 1.5zm0 7H55.88C56.5 31 57 30.328 57 29.5c0-.829-.5-1.5-1.119-1.5H26.12C25.5 28 25 28.671 25 29.5c0 .828.5 1.5 1.119 1.5z"/></g><g transform="translate(27 79)"><circle cx="13.5" cy="13.5" r="13.5" fill="#28A745"/><text fill="#FFF" font-family="Arial-BoldMT, Arial" font-size="14" font-weight="bold"><tspan x="9.72" y="17.752">3</tspan></text></g><g fill="#1F9FFE" stroke="#1F9FFE"><path d="M22.5 8.5h1v1h-1zM39.5 8.5h1v1h-1zM56.5 8.5h1v1h-1z"/></g></g></svg>