<svg xmlns="http://www.w3.org/2000/svg" viewBox="0 0 100 128"><g fill="#1f9ffe" stroke="#fff" stroke-miterlimit="10" stroke-width=".903"><path d="M80.1 49.2H22.9a3.9 3.9 0 0 0-3.9 3.9v39.4a4 4 0 0 0 3.9 4h19.6v2.8a4.8 4.8 0 0 1-4.7 4.8h-4.4a1.5 1.5 0 0 0-1.5 1.5 1.5 1.5 0 0 0 1.5 1.5h36.2a1.5 1.5 0 0 0 1.5-1.5 1.5 1.5 0 0 0-1.5-1.5h-4.4a4.8 4.8 0 0 1-4.7-4.8v-2.8h19.6a4 4 0 0 0 3.9-4V53.1a3.9 3.9 0 0 0-3.9-3.9zm-36.2 54.9a7.9 7.9 0 0 0 1.6-4.8v-2.8h12v2.8a7.9 7.9 0 0 0 1.6 4.8zM81 92.5a1 1 0 0 1-.9 1H22.9a1 1 0 0 1-.9-1v-7.8h59zm0-10.8H22V53.1a.9.9 0 0 1 .9-.9h57.2a.9.9 0 0 1 .9.9z"/><circle cx="51.5" cy="89.1" r="1.6"/></g><g fill="#1f9ffe"><path d="M57.4 35.3a1.1 1.1 0 0 0-.7-.6l-3.7-.9-2.1-3.3a.8.8 0 0 0-.8-.4.8.8 0 0 0-.7.4l-2.1 3.3-3.7.9a1.1 1.1 0 0 0-.7.6 1 1 0 0 0 .2.9l2.5 3-.3 3.8a.9.9 0 0 0 .4.8.8.8 0 0 0 .8.1l3.6-1.4 3.7 1.4h.3l.5-.2a.9.9 0 0 0 .4-.7l-.3-3.8 2.5-3a1 1 0 0 0 .2-.9zm-4.3 3a1.4 1.4 0 0 0-.2.6l.2 2.8-2.6-1h-.7l-2.6 1 .2-2.8a1.4 1.4 0 0 0-.2-.6l-1.8-2.2 2.7-.7a.7.7 0 0 0 .5-.4l1.5-2.4 1.6 2.4a.7.7 0 0 0 .5.4l2.7.7zM50.1 46.5a1 1 0 0 0-.9.9v19.2a1 1 0 0 0 .9.9.9.9 0 0 0 .9-.9V47.4a.9.9 0 0 0-.9-.9zM64.2 43.2a.9.9 0 0 0-1.2-.1 14.3 14.3 0 0 0-3.8 5.6 29.6 29.6 0 0 0-1.9 11.4.9.9 0 0 0 1.8 0c0-9.7 3.2-13.9 5-15.6a.9.9 0 0 0 .1-1.3zM73 38.1a.8.8 0 0 0-.7-.5h-1.9l-1.3-1.4a.8.8 0 0 0-.8-.2c-.3 0-.5.3-.6.5l-.7 1.8-1.7.8a1.8 1.8 0 0 0-.5.7.9.9 0 0 0 .4.8l1.4 1.2.3 1.8a1.3 1.3 0 0 0 .5.7h.4l.5-.2 1.6-1 1.8.3h.1a.9.9 0 0 0 .9-.9v-.3l-.5-1.7.9-1.6a1 1 0 0 0-.1-.8zm-2.6 2.6l.2.8h-.8a.6.6 0 0 0-.6.1l-.7.5v-.8a.9.9 0 0 0-.4-.6l-.6-.5.7-.4a1 1 0 0 0 .5-.4l.3-.8.5.6.6.2h.8l-.4.7a.6.6 0 0 0-.1.6zM37.3 43.1a.9.9 0 0 0-1.2.1.9.9 0 0 0 0 1.3c1.9 1.7 5.1 5.9 5.1 15.6a.9.9 0 0 0 1.8 0 29.6 29.6 0 0 0-1.9-11.4 14.3 14.3 0 0 0-3.8-5.6zM35.4 39.8a1 1 0 0 0-.4-.7l-1.7-.8-.7-1.8c-.1-.2-.3-.5-.6-.5a1 1 0 0 0-.9.2l-1.3 1.4H28a1 1 0 0 0-.8.5 1.4 1.4 0 0 0 0 .9l.9 1.6-.5 1.8a.8.8 0 0 0 .2.8.7.7 0 0 0 .8.3l1.8-.3 1.6 1 .5.2h.4a1.3 1.3 0 0 0 .5-.7l.3-1.8 1.4-1.2a.7.7 0 0 0 .3-.9zm-3.1.8a.9.9 0 0 0-.4.6v.8l-.7-.5h-1.5l.2-.8a.5.5 0 0 0-.1-.6l-.3-.7h.8l.6-.2.5-.6.3.8a1 1 0 0 0 .5.4l.7.4zM39.6 27.4a8 8 0 0 1 3 4.8.9.9 0 0 0 .9.8h.1a1 1 0 0 0 .8-1 9.6 9.6 0 0 0-4-6.2 1 1 0 0 0-1.2.4.9.9 0 0 0 .4 1.2zM35.5 26.9a2.7 2.7 0 1 0 0-5.4 2.7 2.7 0 0 0 0 5.4zm0-3.6a.9.9 0 0 1 0 1.8.9.9 0 0 1 0-1.8zM56.7 33h.1a.9.9 0 0 0 .9-.8 8 8 0 0 1 3-4.8.9.9 0 0 0 .4-1.2 1.1 1.1 0 0 0-1.3-.4 9.9 9.9 0 0 0-3.9 6.2.9.9 0 0 0 .8 1zM64.7 26.9a2.7 2.7 0 1 0-2.6-2.7 2.7 2.7 0 0 0 2.6 2.7zm0-3.6a.9.9 0 1 1 0 1.8.9.9 0 0 1 0-1.8zM34.7 52.6a.9.9 0 1 0 .9.9.9.9 0 0 0-.9-.9zM37.6 34.7a.9.9 0 1 0 .9-.9.9.9 0 0 0-.9.9zM50.1 27a.9.9 0 1 0-.9-.9.9.9 0 0 0 .9.9zM62.7 34.5a.9.9 0 1 0 .9-.9.9.9 0 0 0-.9.9zM64.6 52.6a.9.9 0 1 0 .9.9.9.9 0 0 0-.9-.9zM42.1 61.8a.9.9 0 1 0 .9.9.9.9 0 0 0-.9-.9zM58.2 61.8a.9.9 0 1 0 .9.9.9.9 0 0 0-.9-.9zM45.2 47.3a1 1 0 0 0-.9.9.9.9 0 0 0 1.8 0 1 1 0 0 0-.9-.9zM55.2 46.9a.9.9 0 1 0 .9.9.9.9 0 0 0-.9-.9z"/></g><circle cx="50.5" cy="115.5" r="12.5" fill="#28a745"/><text transform="translate(46 120.4)" font-size="14" fill="#fff" font-family="Arial-BoldMT,Arial" font-weight="700">1</text></svg>