<svg xmlns="http://www.w3.org/2000/svg" viewBox="0 0 100 128"><g fill="#1f9ffe" stroke="#fff" stroke-miterlimit="10"><path d="M77.2 55.7a1.3 1.3 0 0 0 1 .3l5.8-.8-.4-2.3-2.3.3 6.6-6.6-1.6-1.6-6.6 6.6.3-2.3-2.3-.4-.8 5.8a1.9 1.9 0 0 0 .3 1z" stroke-width=".719"/><path d="M48.4 37.8a1.4 1.4 0 0 0 2 .2.2.2 0 0 0 .2-.2l4.1-5.4-2.2-1.7-1.6 2.2V22h-2.7v10.9l-1.7-2.2-2.2 1.7z" stroke-width=".845"/><path d="M9.2 45l8.1 8.1-2.8-.4-.5 2.8 7.1 1a1.4 1.4 0 0 0 1.6-1.2v-.4l-1-7.1-2.8.4.4 2.9-8.1-8.1z" stroke-width=".881"/><g stroke-width="2"><path d="M75.4 72.9a.3.3 0 0 0-.1-.2c0-.2-.1-.3-.1-.4l-.2-.2-.2-.3h-.2l-.2-.2-23.2-14a2.6 2.6 0 0 0-2.4 0L25.7 71.5l-.3.2h-.2l-.2.3-.2.2c0 .1-.1.2-.1.3s-.1.2-.1.3-.1.4-.1.6v23.2a2.4 2.4 0 0 0 1.2 2l23.1 13.9h.1l.3.2h.2a1.3 1.3 0 0 0 1.2 0h.2l.3-.2h.1l23.1-13.9a2.4 2.4 0 0 0 1.2-2V73.5c0-.2-.1-.4-.1-.6zM50 62.3l7.1 4.2-18.7 11.2-7.1-4.2zm-2.3 44.1L29.2 95.3V77.6l18.5 11.1zM50 84.7l-7.1-4.3 18.7-11.2 7.1 4.3zm20.8 10.6l-18.5 11.1V88.7l18.5-11.1zM47.7 48h4.6v4.63h-4.6zM13 82.7h4.6v4.63H13zM82.4 82.7H87v4.63h-4.6zM22.188 60.52l3.252-3.253 3.274 3.274-3.252 3.252zM69.122 60.485l3.252-3.252 3.274 3.274-3.252 3.252z"/></g></g><circle cx="50.5" cy="115.5" r="12.5" fill="#28a745"/><text transform="translate(47 120.4)" font-size="14" fill="#fff" font-family="Arial-BoldMT,Arial" font-weight="700">2</text></svg>