<svg xmlns="http://www.w3.org/2000/svg" width="94" height="89"><g fill="none" fill-rule="evenodd"><g fill="#1F9FFE"><path fill-rule="nonzero" d="M93.207 45.056c-1.89-3.31-6.082-4.459-9.365-2.574-.596.297-8.217 4.086-14.496 6.758a1.4 1.4 0 0 0-.735 1.825 1.372 1.372 0 0 0 1.804.743c6.583-2.802 14.604-6.806 14.685-6.846l.077-.042c1.973-1.151 4.506-.465 5.645 1.53 1.319 2.307-.74 4.84-1.749 5.876-6.838 5.58-25.76 19.887-32.12 19.887-7.05 0-26.832-4.239-31.67-5.3V44.158c9.593-1.426 14.674.362 25.323 4.117 3.24 1.142 6.91 2.435 11.371 3.878.665.293 2.51 1.343 1.807 3.718-.428 1.443-1.806 2.82-3.823 2.439-2.712-.515-18.669-2.704-19.347-2.797a1.379 1.379 0 0 0-1.55 1.194 1.39 1.39 0 0 0 1.18 1.567c.166.023 16.566 2.273 19.21 2.774.41.078.808.115 1.193.115 2.924 0 5.074-2.123 5.776-4.493.739-2.494-.029-5.652-3.403-7.096l-.014-.007-.013-.006c-.019-.008-.037-.013-.056-.02l-.057-.022c-4.456-1.44-8.127-2.734-11.367-3.875-10.62-3.744-16.217-5.713-26.23-4.3V40.18c0-.77-.616-1.393-1.377-1.393h-4.131v-1.393c0-.77-.616-1.393-1.377-1.393H1.378C.616 36 0 36.624 0 37.393v30.64c0 .77.617 1.394 1.377 1.394s1.378-.624 1.378-1.393V38.786H17.02v33.428h-2.753V70.82c0-.77-.616-1.393-1.377-1.393s-1.378.624-1.378 1.393v1.393H1.377c-.76 0-1.377.623-1.377 1.393S.617 75 1.377 75h17.02c.761 0 1.378-.624 1.378-1.393v-1.463h4.13c.761 0 1.378-.624 1.378-1.394v-.984C31.045 71.026 49.8 75 56.953 75c3.764 0 10.438-3.392 20.404-10.37a260.16 260.16 0 0 0 13.505-10.184c.038-.032.075-.065.11-.1 2.992-3.03 3.827-6.504 2.235-9.29zM22.528 68.012v1.345h-2.753V41.572h2.753v26.44zM76.982 0H35.018C32.25 0 30 2.267 30 5.054v23.892C30 31.733 32.25 34 35.018 34h41.964C79.75 34 82 31.733 82 28.946V5.054C82 2.267 79.749 0 76.982 0zM32.737 5.054a2.291 2.291 0 0 1 2.28-2.297h41.965c1.258 0 2.28 1.03 2.28 2.297v.46H32.738v-.46zm46.526 23.892a2.292 2.292 0 0 1-2.28 2.297H35.017a2.291 2.291 0 0 1-2.281-2.297V15.623h46.526v13.323zm-46.526-16.08V8.271h46.526v4.595H32.737z"/><path d="M49.588 22H36.412c-.78 0-1.412.671-1.412 1.5s.632 1.5 1.412 1.5h13.176c.78 0 1.412-.671 1.412-1.5s-.632-1.5-1.412-1.5zM75.5 22h-4a1.5 1.5 0 1 0 0 3h4a1.5 1.5 0 1 0 0-3z"/></g><g transform="translate(44 62)"><circle cx="13.5" cy="13.5" r="13.5" fill="#28A745"/><text fill="#FFF" font-family="Arial-BoldMT, Arial" font-size="14" font-weight="bold" transform="translate(9 4)"><tspan x=".72" y="13.752">4</tspan></text></g></g></svg>